<?xml version="1.0" standalone="no"?>
<!DOCTYPE svg PUBLIC "-//W3C//DTD SVG 20010904//EN"
 "http://www.w3.org/TR/2001/REC-SVG-20010904/DTD/svg10.dtd">
<svg version="1.0" xmlns="http://www.w3.org/2000/svg"
 width="700.000000pt" height="700.000000pt" viewBox="0 0 700.000000 700.000000"
 preserveAspectRatio="xMidYMid meet">
<metadata>
Created by potrace 1.11, written by Peter Selinger 2001-2013
</metadata>
<g transform="translate(0.000000,700.000000) scale(0.100000,-0.100000)"
fill="#000000" stroke="none">
<path d="M3090 5541 c-4 -9 -25 -61 -45 -116 -20 -55 -43 -113 -50 -130 -7
-16 -63 -163 -125 -325 -61 -162 -115 -304 -120 -315 -9 -20 -261 -678 -287
-748 -14 -40 -147 -386 -188 -492 -13 -33 -64 -168 -115 -300 -50 -132 -95
-249 -100 -260 -5 -11 -41 -105 -80 -210 -40 -104 -87 -228 -105 -275 -18 -47
-81 -211 -140 -365 -59 -154 -129 -337 -156 -407 -27 -70 -49 -133 -49 -141 0
-11 80 -13 437 -12 l437 0 22 58 c13 32 55 149 94 260 143 401 161 452 170
472 5 11 16 44 25 73 9 28 20 52 23 53 4 0 337 2 741 2 477 1 739 -2 747 -8 7
-5 36 -75 65 -155 28 -80 71 -199 94 -265 24 -66 65 -178 90 -250 25 -71 55
-155 66 -185 l20 -56 453 0 454 0 -13 36 c-16 44 -161 423 -180 470 -15 37
-27 69 -130 340 -37 96 -77 202 -90 235 -24 61 -60 156 -206 540 -44 116 -87
226 -94 245 -21 50 -195 505 -266 695 -33 88 -64 169 -69 180 -5 11 -55 139
-110 285 -56 146 -119 310 -140 365 -21 55 -70 183 -108 285 -84 223 -76 201
-126 330 l-41 105 -398 1 c-352 0 -399 -2 -407 -15z m448 -1212 c51 -165 268
-795 396 -1146 l15 -43 -469 0 c-259 0 -470 1 -470 3 0 2 16 48 36 103 19 54
53 149 74 209 21 61 68 196 105 300 37 105 81 228 97 275 39 110 134 415 143
459 10 45 12 40 73 -160z"/>
<path d="M1188 5207 c-73 -57 -139 -111 -146 -120 -18 -22 -25 -77 -14 -107 8
-19 167 -243 209 -295 5 -5 38 -50 73 -100 36 -49 69 -95 75 -101 5 -7 50 -66
99 -132 130 -178 143 -179 340 -29 158 121 188 166 154 230 -23 44 -502 693
-534 725 -28 26 -42 32 -78 32 -41 0 -54 -8 -178 -103z"/>
<path d="M5551 5294 c-19 -14 -90 -104 -217 -279 -8 -11 -87 -119 -175 -239
-207 -282 -210 -296 -87 -387 40 -30 82 -62 93 -72 11 -10 46 -36 77 -56 61
-41 99 -46 144 -16 18 12 228 278 342 433 29 40 102 135 130 171 15 18 44 58
65 89 34 50 37 60 31 96 -7 48 -21 65 -89 114 -27 20 -52 39 -55 42 -3 4 -39
32 -81 63 -62 47 -83 57 -115 57 -22 0 -50 -7 -63 -16z"/>
<path d="M165 4185 c-48 -20 -61 -42 -111 -185 -58 -166 -66 -229 -32 -262 17
-17 184 -77 616 -221 326 -108 605 -197 621 -197 16 0 41 10 56 22 31 24 45
54 105 225 47 136 48 173 5 213 -16 15 -202 82 -604 216 -318 106 -590 195
-603 198 -13 2 -37 -2 -53 -9z"/>
<path d="M6235 4019 c-668 -222 -666 -221 -688 -258 -24 -41 -21 -78 14 -173
17 -45 42 -113 56 -150 28 -76 68 -118 113 -118 39 0 1200 388 1224 408 38 33
46 73 30 133 -9 30 -21 68 -28 84 -8 17 -26 66 -41 110 -35 102 -57 128 -116
138 -15 3 -238 -66 -564 -174z"/>
<path d="M905 2779 c-93 -32 -209 -72 -256 -88 -396 -134 -430 -148 -461 -186
-27 -31 -22 -67 28 -235 40 -132 52 -160 80 -187 22 -22 44 -33 63 -33 16 0
87 21 157 46 71 25 161 56 199 69 254 85 513 178 533 191 12 8 30 30 38 48 15
31 15 38 -16 142 -56 190 -65 218 -77 240 -14 24 -71 54 -100 53 -10 0 -94
-27 -188 -60z"/>
<path d="M5835 2822 c-38 -24 -45 -37 -104 -212 -30 -89 -48 -158 -46 -178 3
-41 47 -89 89 -98 16 -4 37 -10 46 -14 8 -5 44 -18 80 -30 36 -12 74 -26 85
-30 11 -5 94 -34 185 -65 91 -31 226 -77 300 -102 203 -69 214 -63 296 172 62
179 64 210 17 256 -15 15 -50 34 -78 44 -67 22 -281 96 -550 190 -254 88 -278
93 -320 67z"/>
</g>
</svg>
