<?xml version="1.0" standalone="no"?>
<!DOCTYPE svg PUBLIC "-//W3C//DTD SVG 20010904//EN"
 "http://www.w3.org/TR/2001/REC-SVG-20010904/DTD/svg10.dtd">
<svg version="1.0" xmlns="http://www.w3.org/2000/svg"
 width="500.000000pt" height="500.000000pt" viewBox="0 0 500.000000 500.000000"
 preserveAspectRatio="xMidYMid meet">
<metadata>
Created by potrace 1.11, written by Peter Selinger 2001-2013
</metadata>
<g transform="translate(0.000000,500.000000) scale(0.100000,-0.100000)"
fill="#000000" stroke="none">
<path d="M2367 4994 c-1 -1 -42 -4 -92 -8 -49 -3 -99 -8 -110 -10 -11 -2 -41
-7 -66 -10 -317 -43 -683 -183 -974 -374 -230 -150 -377 -283 -585 -528 -51
-60 -208 -304 -257 -399 -190 -371 -278 -740 -277 -1170 1 -408 82 -761 260
-1118 303 -611 849 -1068 1514 -1267 99 -29 213 -57 270 -65 14 -2 41 -6 60
-10 205 -37 538 -39 760 -5 36 5 76 12 90 15 14 3 39 8 55 10 220 39 588 189
810 331 617 393 1036 1031 1144 1744 50 326 28 705 -59 1015 -58 208 -107 333
-199 510 -301 582 -805 1013 -1420 1215 -66 22 -130 42 -143 44 -13 3 -54 12
-93 21 -90 20 -110 23 -165 31 -25 3 -52 8 -61 9 -64 12 -451 28 -462 19z
m322 -629 c41 -3 77 -7 80 -9 3 -2 29 -6 56 -10 28 -3 68 -11 90 -16 22 -6 47
-12 55 -14 118 -29 247 -79 380 -145 499 -251 854 -705 979 -1255 94 -407 36
-885 -150 -1260 -42 -83 -167 -287 -188 -306 -3 -3 -24 -27 -46 -55 -105 -131
-307 -306 -462 -399 -172 -103 -431 -204 -593 -231 -19 -3 -60 -10 -90 -15
-191 -35 -495 -30 -670 10 -25 6 -54 12 -65 14 -11 2 -39 9 -62 15 -460 124
-854 420 -1108 832 -29 47 -116 223 -138 279 -45 116 -90 271 -103 360 -2 14
-8 52 -13 85 -11 62 -8 481 3 525 3 13 8 42 11 65 18 124 79 318 146 463 33
71 127 237 151 267 5 6 27 35 49 65 194 266 513 502 841 624 100 37 267 81
348 92 25 3 48 8 52 10 4 3 53 7 110 10 57 4 104 7 106 9 3 3 147 -3 231 -10z"/>
<path d="M2874 3812 c-28 -18 -32 -56 -30 -322 1 -151 -2 -287 -7 -303 -5 -15
-18 -29 -30 -32 -12 -3 -310 -7 -662 -8 -629 -2 -641 -2 -686 -23 -53 -25 -84
-54 -107 -104 -15 -32 -17 -102 -17 -750 0 -765 0 -769 50 -828 24 -29 73 -57
118 -69 25 -7 1923 -12 1950 -5 38 10 43 45 42 330 -1 268 -2 273 -23 295
l-23 22 -707 0 c-738 1 -751 2 -753 43 -1 24 -1 396 0 402 8 35 1 35 688 40
667 5 668 5 710 27 23 13 50 35 60 50 48 69 47 67 49 643 1 527 -2 574 -29
592 -14 9 -580 9 -593 0z"/>
</g>
</svg>
