<svg xmlns="http://www.w3.org/2000/svg" viewBox="0 0 499.1 499"><defs><style>.cls-1{fill:#5fb1d6;}.cls-1,.cls-2{fill-rule:evenodd;}.cls-2{fill:#347ea6;}</style></defs><title>Asset 1</title><g id="Layer_2" data-name="Layer 2"><g id="Layer_1-2" data-name="Layer 1"><path class="cls-1" d="M499.1,249.33c0,137-112.53,250.15-249.35,249.67S-.16,391,0,249C.16,109.7,110.4-.22,249.58,0,391.88.23,497.92,113.79,499.1,249.33Zm-437-.71c-2.22,96.87,75.64,187.88,186,188.51,105.83.6,189-81.81,189-187.92,0-111.21-91.36-188-187.39-187.28C145.15,62.74,62.23,144.49,62.12,248.62Z"/><path class="cls-2" d="M248.73,363c-29,0-57.94.07-86.92,0-21.74-.06-29-7.49-29-29.52q0-59.88,0-119.78c0-21.47,7.21-28.78,28.36-28.81,37.8-.06,75.61-.18,113.41.13,7.29.05,9.89-1.94,9.64-9.49-.52-16.24,0-32.51-.24-48.76-.11-6.58,1.71-9.5,9-9.25,15.88.53,31.8.42,47.69,0,6.67-.16,8.44,2.41,8.39,8.69-.22,33.21.09,66.42-.2,99.63-.13,15.47-8.45,23.43-23.82,23.48-39.23.12-78.44.22-117.66-.12-7.25-.06-10.08,1.63-9.57,9.29a217.47,217.47,0,0,1,0,29.66c-.57,7.94,1.89,10.08,9.9,10,42.75-.42,85.51.09,128.25-.42,9.87-.11,13.94,2.06,13.24,12.73a391.57,391.57,0,0,0-.06,42.38c.34,8.06-2.57,10.36-10.31,10.28C308.8,362.82,278.76,363,248.73,363Z"/></g></g></svg>